# xmcd
#
# Track frame offsets:
# 150
# 14983
# 31248
# 52591
# 60498
# 77894
# 85234
# 101357
# 120820
# 142161
# 154852
# 176166
# 187040
#
# Disc length: 2740 seconds
#
#
# Revision: 0
# Processed by: cddbd v1.5.1PL0 Copyright (c) Steve Scherf et al.
# Submitted via: FreeRIP 2.52 
#
DISCID=a50ab20d
DTITLE=Joserra Senperena - Blues pasadizoak
DYEAR=2002
DGENRE=Blues
TTITLE0=Puentes y bruma
TTITLE1=Zer daukat, zehazki?
TTITLE2=Jade
TTITLE3=Nada especial
TTITLE4=Cuck's woods
TTITLE5=Lo que tu mano guarda
TTITLE6=Polka triste de febrero
TTITLE7=Habanera
TTITLE8=Sanitary Blues
TTITLE9=Luces en el Down-Town
TTITLE10=Soledad
TTITLE11=Chaplin
TTITLE12=While she sang the blues
EXTD=
EXTT0=
EXTT1=
EXTT2=
EXTT3=
EXTT4=
EXTT5=
EXTT6=
EXTT7=
EXTT8=
EXTT9=
EXTT10=
EXTT11=
EXTT12=
PLAYORDER=
